# xmcd CD database file
#
# Track frame offsets:
#	150
#	60519
#	96522
#	142067
#	167958
#	218773
#	227500
#	249027
#	292969
#
# Disc length: 4386 seconds
#
# Revision: 0
# Processed by: cddbd v1.5.2PL0 Copyright (c) Steve Scherf et al.
# Submitted via: CDex 1.51
#
DISCID=7c112009
DTITLE=Ingo Bethke - Ingo Bethke
DYEAR=2009
DGENRE=Jazz
TTITLE0=A Joan That Truly Cares About Y-O-U
TTITLE1=B Horror
TTITLE2=Chaos Theory
TTITLE3=Around the Block
TTITLE4=Box Out
TTITLE5=Hava Nashira (Intro)
TTITLE6=Hava Nashira
TTITLE7=Unchecked Aggression
TTITLE8=We're Going To Test Your Knowledge of Sexy Women
EXTD=YEAR: 2009
EXTT0=
EXTT1=
EXTT2=
EXTT3=
EXTT4=
EXTT5=
EXTT6=
EXTT7=
EXTT8=
PLAYORDER=
